<?xml version="1.0" encoding="utf-8"?>
<!-- Generator: Adobe Illustrator 16.0.0, SVG Export Plug-In . SVG Version: 6.00 Build 0)  -->
<!DOCTYPE svg PUBLIC "-//W3C//DTD SVG 1.1//EN" "http://www.w3.org/Graphics/SVG/1.1/DTD/svg11.dtd">
<svg version="1.1" id="Layer_1" xmlns="http://www.w3.org/2000/svg" xmlns:xlink="http://www.w3.org/1999/xlink" x="0px" y="0px"
	 width="300px" height="300px" viewBox="156 156 300 300" enable-background="new 156 156 300 300" xml:space="preserve">
<g>
	<path d="M201.499,251.428v134.187c0,0.141-0.043,0.27-0.043,0.41c0,4.829,1.457,9.309,3.892,13.108
		c0.08,0.128,0.129,0.271,0.214,0.397c0.906,1.365,1.94,2.638,3.091,3.795c0.006,0.006,0.006,0.006,0.006,0.012
		c0.006,0.006,0.006,0.006,0.012,0.006c1.157,1.157,2.43,2.187,3.794,3.092c0.128,0.086,0.27,0.135,0.398,0.215
		c3.8,2.436,8.287,3.897,13.109,3.897c0.141,0,0.27-0.037,0.41-0.043h134.187c13.465,0,24.48-11.017,24.48-24.479
		s-11.017-24.48-24.48-24.48h-75.496l118.33-118.33c9.522-9.523,9.522-25.098,0-34.621c-9.521-9.523-25.099-9.523-34.62,0
		l-118.324,118.33v-75.497c0-13.464-11.016-24.48-24.48-24.48C212.514,226.948,201.499,237.964,201.499,251.428z"/>
</g>
<g display="none">
	<path display="inline" d="M111.262,514.238c107.553,107.553,281.923,107.553,389.477,0c107.547-107.547,107.553-281.924,0-389.478
		c-107.547-107.547-281.924-107.547-389.477,0C3.708,232.314,3.715,406.686,111.262,514.238z M225.944,240.479
		c13.464,0,24.48,11.016,24.48,24.48v75.497l118.324-118.324c9.523-9.523,25.099-9.523,34.621,0c9.521,9.522,9.521,25.098,0,34.621
		l-118.33,118.324h75.496c13.464,0,24.479,11.016,24.479,24.479c0,13.465-11.017,24.48-24.479,24.48H226.348
		c-0.141,0-0.269,0.042-0.41,0.042c-4.829,0-9.308-1.456-13.109-3.892c-0.128-0.08-0.269-0.13-0.398-0.216
		c-1.365-0.904-2.638-1.938-3.794-3.09c-0.006-0.007-0.006-0.007-0.012-0.007c-0.006-0.006-0.006-0.006-0.006-0.012
		c-1.157-1.157-2.185-2.431-3.091-3.795c-0.085-0.128-0.134-0.27-0.214-0.397c-2.436-3.801-3.893-8.286-3.893-13.108
		c0-0.142,0.037-0.27,0.043-0.41V264.965C201.464,251.495,212.48,240.479,225.944,240.479z"/>
</g>
<g display="none">
	<g display="inline">
		<path d="M111.262,514.238c107.553,107.553,281.923,107.553,389.477,0c107.547-107.547,107.553-281.924,0-389.478
			c-107.547-107.547-281.924-107.547-389.477,0C3.708,232.314,3.715,406.686,111.262,514.238z M479.098,146.402
			c95.602,95.601,95.602,250.602,0,346.204c-95.601,95.601-250.595,95.601-346.202,0c-95.601-95.602-95.601-250.597,0-346.204
			C228.496,50.801,383.497,50.801,479.098,146.402z"/>
		<path d="M201.458,264.958v134.187c0,0.142-0.042,0.271-0.042,0.41c0,4.829,1.457,9.31,3.892,13.109
			c0.08,0.128,0.128,0.269,0.214,0.396c0.906,1.365,1.94,2.639,3.09,3.796c0.006,0.006,0.006,0.006,0.006,0.012
			c0.006,0.006,0.006,0.006,0.012,0.006c1.157,1.157,2.43,2.187,3.794,3.091c0.128,0.086,0.269,0.135,0.397,0.214
			c3.801,2.438,8.287,3.898,13.109,3.898c0.141,0,0.269-0.036,0.41-0.042h134.188c13.464,0,24.479-11.018,24.479-24.48
			s-11.016-24.479-24.479-24.479H285.03l118.336-118.324c9.521-9.522,9.521-25.098,0-34.621c-9.522-9.523-25.099-9.523-34.621,0
			l-118.33,118.33v-75.496c0-13.464-11.016-24.48-24.48-24.48C212.474,240.479,201.458,251.495,201.458,264.958z"/>
	</g>
</g>
</svg>
