<?xml version="1.0" encoding="utf-8"?>
<!-- Generator: Adobe Illustrator 16.0.0, SVG Export Plug-In . SVG Version: 6.00 Build 0)  -->
<!DOCTYPE svg PUBLIC "-//W3C//DTD SVG 1.1//EN" "http://www.w3.org/Graphics/SVG/1.1/DTD/svg11.dtd">
<svg version="1.1" id="Layer_1" xmlns="http://www.w3.org/2000/svg" xmlns:xlink="http://www.w3.org/1999/xlink" x="0px" y="0px"
	 width="300px" height="300px" viewBox="156 156 300 300" enable-background="new 156 156 300 300" xml:space="preserve">
<g>
	<path d="M418.486,270.645l-94.885-94.884c-0.099-0.098-0.158-0.22-0.264-0.318c-3.415-3.415-7.613-5.551-12.025-6.518
		c-0.146-0.031-0.281-0.098-0.429-0.128c-1.604-0.318-3.236-0.496-4.866-0.496c-0.006,0-0.013,0-0.013,0h-0.012
		c-1.634,0-3.262,0.171-4.866,0.496c-0.147,0.03-0.281,0.092-0.428,0.128c-4.413,0.967-8.611,3.103-12.026,6.518
		c-0.098,0.098-0.165,0.22-0.263,0.318l-94.896,94.884c-9.523,9.523-9.523,25.098,0,34.621c9.522,9.522,25.098,9.522,34.621,0
		l53.385-53.385v167.338c0,13.465,11.016,24.48,24.48,24.48c13.464,0,24.481-11.018,24.481-24.48V251.88l53.385,53.385
		c9.521,9.522,25.098,9.522,34.62,0C428.009,295.743,428.009,280.167,418.486,270.645z"/>
</g>
<g display="none">
	<path display="inline" d="M306,594.9c152.101,0,275.4-123.301,275.4-275.4C581.4,167.406,458.1,44.1,306,44.1
		c-152.094,0-275.4,123.306-275.4,275.4C30.6,471.601,153.906,594.9,306,594.9z M193.515,320.234c9.522-9.522,25.098-9.522,34.621,0
		l53.385,53.385V206.28c0-13.464,11.016-24.48,24.48-24.48s24.48,11.016,24.48,24.48v167.339l53.385-53.385
		c9.521-9.522,25.098-9.522,34.62,0c9.521,9.522,9.521,25.098,0,34.621l-94.885,94.884c-0.099,0.099-0.158,0.221-0.264,0.317
		c-3.415,3.415-7.613,5.552-12.024,6.52c-0.147,0.03-0.282,0.098-0.43,0.128c-1.604,0.318-3.236,0.496-4.864,0.496
		c-0.007,0-0.014,0-0.014,0h-0.012c-1.634,0-3.262-0.172-4.866-0.496c-0.147-0.03-0.281-0.092-0.428-0.128
		c-4.413-0.968-8.611-3.104-12.026-6.52c-0.098-0.098-0.165-0.22-0.263-0.317l-94.896-94.884
		C183.992,345.333,183.992,329.757,193.515,320.234z"/>
</g>
<g display="none">
	<g display="inline">
		<path d="M306,594.9c152.101,0,275.4-123.301,275.4-275.4C581.4,167.406,458.1,44.1,306,44.1c-152.094,0-275.4,123.306-275.4,275.4
			C30.6,471.601,153.906,594.9,306,594.9z M306,74.7c135.203,0,244.8,109.603,244.8,244.8c0,135.203-109.597,244.8-244.8,244.8
			c-135.197,0-244.8-109.597-244.8-244.8C61.2,184.303,170.803,74.7,306,74.7z"/>
		<path d="M193.515,354.855l94.884,94.884c0.098,0.099,0.159,0.221,0.263,0.317c3.415,3.415,7.613,5.552,12.026,6.52
			c0.147,0.03,0.281,0.098,0.428,0.128c1.604,0.318,3.237,0.496,4.865,0.496c0.006,0,0.012,0,0.012,0h0.012
			c1.634,0,3.262-0.172,4.865-0.496c0.146-0.03,0.282-0.092,0.429-0.128c4.413-0.968,8.611-3.104,12.026-6.52
			c0.098-0.098,0.165-0.22,0.263-0.317l94.896-94.884c9.521-9.523,9.521-25.099,0-34.621c-9.522-9.522-25.099-9.522-34.621,0
			l-53.385,53.385V206.28c0-13.464-11.017-24.48-24.479-24.48s-24.48,11.016-24.48,24.48v167.339l-53.385-53.385
			c-9.523-9.522-25.098-9.522-34.621,0C183.992,329.757,183.992,345.333,193.515,354.855z"/>
	</g>
</g>
</svg>
