<?xml version="1.0" encoding="utf-8"?>
<!-- Generator: Adobe Illustrator 16.0.0, SVG Export Plug-In . SVG Version: 6.00 Build 0)  -->
<!DOCTYPE svg PUBLIC "-//W3C//DTD SVG 1.1//EN" "http://www.w3.org/Graphics/SVG/1.1/DTD/svg11.dtd">
<svg version="1.1" id="Layer_1" xmlns="http://www.w3.org/2000/svg" xmlns:xlink="http://www.w3.org/1999/xlink" x="0px" y="0px"
	 width="300px" height="300px" viewBox="156 156 300 300" enable-background="new 156 156 300 300" xml:space="preserve">
<g>
	<path d="M360.572,201.495H226.385c-0.141,0-0.269-0.043-0.41-0.043c-4.829,0-9.308,1.457-13.109,3.898
		c-0.128,0.08-0.269,0.128-0.398,0.214c-1.365,0.906-2.638,1.94-3.794,3.091c-0.006,0.006-0.006,0.006-0.012,0.006
		c-0.006,0-0.006,0.007-0.006,0.013c-1.157,1.157-2.185,2.43-3.091,3.794c-0.085,0.128-0.134,0.269-0.214,0.396
		c-2.436,3.802-3.898,8.287-3.898,13.109c0,0.141,0.037,0.269,0.042,0.41v134.188c0,13.464,11.016,24.479,24.48,24.479
		c13.464,0,24.48-11.017,24.48-24.479v-75.497l118.331,118.331c9.523,9.522,25.1,9.522,34.621,0s9.521-25.1,0-34.621L285.07,250.454
		h75.497c13.465,0,24.479-11.016,24.479-24.479C385.053,212.511,374.035,201.495,360.572,201.495z"/>
</g>
<g display="none">
	<path display="inline" d="M111.262,124.762c-107.553,107.553-107.553,281.923,0,389.477c107.547,107.547,281.923,107.553,389.477,0
		c107.547-107.547,107.547-281.924,0-389.477C393.186,17.209,218.814,17.215,111.262,124.762z M385.021,239.438
		c0,13.464-11.017,24.48-24.48,24.48h-75.496l118.324,118.331c9.521,9.522,9.521,25.098,0,34.621
		c-9.522,9.522-25.098,9.521-34.621,0L250.424,298.54v75.496c0,13.464-11.016,24.479-24.48,24.479
		c-13.464,0-24.48-11.016-24.48-24.479V239.848c0-0.141-0.043-0.269-0.043-0.41c0-4.829,1.457-9.308,3.893-13.109
		c0.08-0.128,0.128-0.27,0.214-0.398c0.906-1.365,1.94-2.638,3.091-3.794c0.006-0.006,0.006-0.006,0.006-0.012
		s0.006-0.006,0.012-0.006c1.157-1.157,2.43-2.185,3.794-3.091c0.129-0.085,0.27-0.134,0.398-0.214
		c3.8-2.436,8.287-3.893,13.109-3.893c0.141,0,0.27,0.037,0.41,0.043h134.187C374.006,214.958,385.021,225.974,385.021,239.438z"/>
</g>
<g display="none">
	<g display="inline">
		<path d="M111.262,124.762c-107.553,107.553-107.553,281.923,0,389.477c107.547,107.547,281.923,107.553,389.477,0
			c107.547-107.547,107.547-281.924,0-389.477C393.186,17.215,218.814,17.215,111.262,124.762z M479.098,492.598
			c-95.601,95.602-250.602,95.602-346.202,0c-95.601-95.601-95.601-250.595,0-346.202c95.6-95.6,250.595-95.6,346.202,0
			C574.698,242.002,574.698,397.004,479.098,492.598z"/>
		<path d="M360.541,214.964H226.354c-0.141,0-0.27-0.043-0.41-0.043c-4.829,0-9.309,1.457-13.109,3.892
			c-0.129,0.08-0.27,0.129-0.398,0.214c-1.365,0.906-2.638,1.94-3.794,3.091c-0.006,0.006-0.006,0.006-0.012,0.006
			c-0.006,0.006-0.006,0.006-0.006,0.012c-1.156,1.157-2.185,2.43-3.09,3.794c-0.086,0.128-0.135,0.27-0.214,0.398
			c-2.436,3.801-3.892,8.287-3.892,13.109c0,0.141,0.037,0.27,0.042,0.41v134.187c0,13.464,11.016,24.479,24.48,24.479
			c13.464,0,24.48-11.016,24.48-24.479v-75.496l118.318,118.33c9.523,9.521,25.099,9.521,34.621,0
			c9.521-9.522,9.521-25.099,0-34.621L285.04,263.923h75.496c13.464,0,24.479-11.016,24.479-24.48
			C385.021,225.98,374.006,214.964,360.541,214.964z"/>
	</g>
</g>
</svg>
