<?xml version="1.0" encoding="utf-8"?>
<!-- Generator: Adobe Illustrator 16.0.0, SVG Export Plug-In . SVG Version: 6.00 Build 0)  -->
<!DOCTYPE svg PUBLIC "-//W3C//DTD SVG 1.1//EN" "http://www.w3.org/Graphics/SVG/1.1/DTD/svg11.dtd">
<svg version="1.1" id="Layer_1" xmlns="http://www.w3.org/2000/svg" xmlns:xlink="http://www.w3.org/1999/xlink" x="0px" y="0px"
	 width="300px" height="300px" viewBox="156 156 300 300" enable-background="new 156 156 300 300" xml:space="preserve">
<g>
	<path d="M410.503,360.57V226.383c0-0.141,0.042-0.27,0.042-0.41c0-4.829-1.456-9.309-3.893-13.109
		c-0.079-0.128-0.129-0.269-0.215-0.397c-0.904-1.365-1.938-2.638-3.09-3.794c-0.007-0.006-0.007-0.006-0.007-0.012
		c-0.006-0.006-0.006-0.006-0.012-0.006c-1.157-1.157-2.431-2.185-3.795-3.09c-0.128-0.086-0.27-0.135-0.397-0.214
		c-3.801-2.437-8.286-3.892-13.109-3.892c-0.141,0-0.269,0.037-0.409,0.042H251.432c-13.464,0-24.48,11.016-24.48,24.48
		s11.017,24.48,24.48,24.48h75.496l-118.33,118.318c-9.523,9.521-9.523,25.098,0,34.621c9.521,9.521,25.098,9.521,34.621,0
		L361.55,285.07v75.497c0,13.463,11.016,24.479,24.479,24.479C399.486,385.051,410.503,374.033,410.503,360.57z"/>
</g>
<g display="none">
	<path display="inline" d="M500.738,124.762c-107.554-107.553-281.924-107.553-389.477,0
		c-107.547,107.547-107.553,281.923,0,389.477c107.547,107.547,281.923,107.547,389.477,0
		C608.291,406.686,608.285,232.314,500.738,124.762z M386.056,398.521c-13.464,0-24.479-11.017-24.479-24.48v-75.497
		L243.251,416.869c-9.522,9.521-25.098,9.521-34.621,0c-9.523-9.522-9.523-25.098,0-34.621l118.33-118.331h-75.496
		c-13.464,0-24.48-11.016-24.48-24.48s11.016-24.48,24.48-24.48h134.188c0.142,0,0.27-0.042,0.409-0.042
		c4.829,0,9.31,1.457,13.109,3.892c0.129,0.08,0.271,0.128,0.397,0.214c1.364,0.906,2.638,1.94,3.795,3.09
		c0.006,0.006,0.006,0.006,0.012,0.006c0.007,0.006,0.007,0.006,0.007,0.012c1.156,1.157,2.186,2.43,3.09,3.794
		c0.086,0.128,0.136,0.269,0.215,0.398c2.437,3.8,3.893,8.286,3.893,13.109c0,0.141-0.036,0.269-0.042,0.41v134.188
		C410.536,387.505,399.52,398.521,386.056,398.521z"/>
</g>
<g display="none">
	<g display="inline">
		<path d="M500.738,124.762c-107.554-107.553-281.924-107.553-389.477,0c-107.547,107.547-107.553,281.923,0,389.477
			c107.547,107.547,281.923,107.547,389.477,0C608.291,406.686,608.285,232.314,500.738,124.762z M132.902,492.598
			c-95.601-95.601-95.601-250.602,0-346.202s250.595-95.6,346.204,0c95.601,95.601,95.601,250.596,0,346.202
			C383.504,588.198,228.496,588.198,132.902,492.598z"/>
		<path d="M410.536,374.042V239.854c0-0.141,0.042-0.27,0.042-0.41c0-4.829-1.456-9.309-3.893-13.109
			c-0.079-0.128-0.129-0.269-0.215-0.397c-0.904-1.365-1.938-2.638-3.09-3.794c-0.007-0.006-0.007-0.006-0.007-0.012
			c-0.006-0.006-0.006-0.006-0.012-0.006c-1.157-1.157-2.431-2.185-3.795-3.09c-0.128-0.086-0.27-0.135-0.397-0.214
			c-3.801-2.437-8.286-3.892-13.109-3.892c-0.141,0-0.269,0.037-0.409,0.042H251.465c-13.464,0-24.48,11.016-24.48,24.48
			s11.016,24.48,24.48,24.48h75.496L208.631,382.25c-9.523,9.521-9.523,25.098,0,34.621c9.522,9.521,25.098,9.521,34.621,0
			l118.331-118.33v75.496c0,13.464,11.016,24.479,24.479,24.479C399.52,398.521,410.536,387.505,410.536,374.042z"/>
	</g>
</g>
</svg>
